<svg width="169" height="49" viewBox="0 0 169 49" fill="none" xmlns="http://www.w3.org/2000/svg">
<g clip-path="url(#clip0_94_3)">
<path d="M140.374 0V7.40104H139.192V6.89062C138.929 7.14583 138.798 7.27344 138.404 7.40104C138.141 7.52865 137.747 7.52865 137.354 7.52865C136.828 7.52865 136.434 7.40104 136.04 7.14583C135.646 6.89062 135.384 6.63542 135.121 6.2526C134.859 5.86979 134.727 5.35938 134.727 4.84896C134.727 4.33854 134.859 3.82812 135.121 3.44531C135.384 3.0625 135.646 2.80729 136.04 2.55208C136.434 2.29688 136.96 2.16927 137.354 2.16927C137.747 2.16927 138.01 2.16927 138.273 2.29687C138.535 2.42448 138.798 2.55208 139.061 2.80729V0H140.374ZM138.404 6.38021C138.667 6.2526 138.798 6.125 138.929 5.86979C139.061 5.61458 139.192 5.35938 139.192 4.97656C139.192 4.72135 139.061 4.33854 138.929 4.08333C138.798 3.82812 138.667 3.70052 138.404 3.57292C138.141 3.44531 137.879 3.31771 137.616 3.31771C137.354 3.31771 137.091 3.44531 136.828 3.57292C136.566 3.70052 136.434 3.82812 136.303 4.08333C136.172 4.33854 136.04 4.59375 136.04 4.97656C136.04 5.35938 136.172 5.61458 136.303 5.86979C136.434 6.125 136.566 6.2526 136.828 6.38021C137.091 6.50781 137.354 6.63542 137.616 6.63542C137.879 6.50781 138.141 6.50781 138.404 6.38021Z" fill="#A2A2A2"/>
<path d="M146.808 5.35921H142.737C142.869 5.74202 143 5.99723 143.263 6.25244C143.525 6.50765 143.919 6.63525 144.444 6.63525C144.97 6.63525 145.495 6.50765 145.889 6.12484L146.545 6.89046C146.283 7.14567 146.02 7.40088 145.626 7.52848C145.232 7.65609 144.838 7.78369 144.444 7.78369C143.919 7.78369 143.394 7.65609 142.869 7.40088C142.475 7.14567 142.081 6.89046 141.818 6.50765C141.556 6.12484 141.424 5.61442 141.424 5.104C141.424 4.59359 141.556 4.21077 141.818 3.70036C142.081 3.31755 142.343 2.93473 142.737 2.80713C143.131 2.55192 143.657 2.42432 144.182 2.42432C144.707 2.42432 145.101 2.55192 145.495 2.80713C145.889 3.06234 146.152 3.31755 146.414 3.70036C146.677 4.08317 146.808 4.59359 146.808 5.104C146.939 5.104 146.939 5.104 146.808 5.35921ZM143.263 3.57275C143 3.82796 142.869 4.08317 142.737 4.46598H145.758C145.758 4.08317 145.495 3.82796 145.232 3.57275C144.97 3.31755 144.576 3.18994 144.182 3.18994C143.788 3.31755 143.525 3.44515 143.263 3.57275Z" fill="#A2A2A2"/>
<path d="M148.515 7.40088C148.121 7.27327 147.727 7.14567 147.596 7.01807L148.121 6.12484C148.384 6.25244 148.646 6.38005 149.04 6.50765C149.434 6.63525 149.697 6.63525 149.96 6.63525C150.747 6.63525 151.01 6.50765 151.01 6.12484C151.01 5.99723 150.879 5.86963 150.747 5.74202C150.616 5.61442 150.222 5.61442 149.828 5.48682C149.434 5.35921 149.04 5.35921 148.778 5.23161C148.515 5.104 148.252 4.9764 148.121 4.8488C147.859 4.59359 147.859 4.33838 147.859 3.95557C147.859 3.44515 148.121 3.06234 148.515 2.80713C148.909 2.55192 149.434 2.42432 150.222 2.42432C150.616 2.42432 150.879 2.42432 151.273 2.55192C151.667 2.67952 151.929 2.67952 152.192 2.93473L151.667 3.82796C151.273 3.57275 150.747 3.44515 150.222 3.44515C149.828 3.44515 149.566 3.44515 149.434 3.57275C149.303 3.70036 149.172 3.82796 149.172 3.95557C149.172 4.21077 149.303 4.33838 149.434 4.33838C149.697 4.46598 149.96 4.46598 150.353 4.59359C150.747 4.59359 151.141 4.72119 151.404 4.8488C151.667 4.9764 151.929 5.104 152.061 5.23161C152.192 5.48682 152.323 5.74202 152.323 6.12484C152.323 6.63525 152.061 7.01807 151.667 7.27327C151.273 7.52848 150.616 7.65609 149.96 7.65609C149.303 7.52848 148.909 7.52848 148.515 7.40088Z" fill="#A2A2A2"/>
<path d="M153.242 1.27604C153.111 1.14844 152.98 1.02083 152.98 0.765625C152.98 0.510417 153.111 0.382812 153.242 0.255208C153.374 0.127604 153.636 0 153.768 0C154.03 0 154.162 0.127604 154.293 0.255208C154.424 0.382812 154.556 0.510417 154.556 0.765625C154.556 1.02083 154.424 1.14844 154.293 1.27604C154.162 1.40365 153.899 1.53125 153.768 1.53125C153.505 1.53125 153.374 1.40365 153.242 1.27604ZM153.111 2.42448H154.293V7.52865H153.111V2.42448Z" fill="#A2A2A2"/>
<path d="M161.253 2.42432V6.76286C161.253 8.54932 160.333 9.44254 158.364 9.44254C157.838 9.44254 157.313 9.44254 156.919 9.31494C156.525 9.18734 156.131 9.05973 155.737 8.80452L156.263 7.91129C156.525 8.0389 156.788 8.29411 157.182 8.29411C157.576 8.42171 157.838 8.42171 158.232 8.42171C158.758 8.42171 159.283 8.29411 159.545 8.0389C159.808 7.78369 159.939 7.40088 159.939 6.89046V6.63525C159.677 6.89046 159.414 7.01807 159.151 7.14567C158.889 7.27327 158.495 7.27327 158.101 7.27327C157.576 7.27327 157.182 7.14567 156.788 7.01807C156.394 6.76286 156.131 6.50765 155.869 6.12484C155.606 5.74202 155.475 5.35921 155.475 4.8488C155.475 4.33838 155.606 3.95557 155.869 3.57275C156.131 3.18994 156.394 2.93473 156.788 2.67952C157.182 2.42432 157.707 2.42432 158.101 2.42432C158.495 2.42432 158.889 2.42432 159.151 2.55192C159.414 2.67952 159.677 2.80713 159.939 3.06234V2.42432H161.253ZM159.545 5.86963C159.808 5.61442 159.939 5.23161 159.939 4.8488C159.939 4.46598 159.808 4.08317 159.545 3.82796C159.283 3.57275 158.889 3.44515 158.364 3.44515C157.838 3.44515 157.444 3.57275 157.182 3.82796C156.919 4.08317 156.788 4.46598 156.788 4.8488C156.788 5.23161 156.919 5.61442 157.182 5.86963C157.444 6.12484 157.838 6.25244 158.364 6.25244C158.889 6.25244 159.283 6.12484 159.545 5.86963Z" fill="#A2A2A2"/>
<path d="M167.424 2.9349C167.818 3.31771 168.081 3.82812 168.081 4.59375V7.52865H166.768V4.72135C166.768 4.21094 166.636 3.95573 166.505 3.70052C166.242 3.44531 165.98 3.31771 165.586 3.31771C165.192 3.31771 164.798 3.44531 164.535 3.70052C164.273 3.95573 164.141 4.33854 164.141 4.84896V7.40104H162.828V2.29688H164.01V2.9349C164.273 2.67969 164.535 2.55208 164.798 2.42448C165.061 2.29688 165.455 2.29688 165.848 2.29688C166.505 2.29687 167.03 2.55208 167.424 2.9349Z" fill="#A2A2A2"/>
<path d="M0 3.70052V0H7.87879C11.9495 0 14.9697 2.29688 14.9697 6.125V12.5052C14.9697 15.0573 13.7879 16.8438 11.5556 17.8646C14.0505 18.8854 15.2323 20.6719 15.2323 23.3516V30.8802C15.2323 34.7083 12.2121 37.0052 8.27273 37.0052H0V33.1771H1.05051V3.70052H0ZM5.77778 16.0781H7.87879C9.19192 16.0781 10.2424 15.1849 10.2424 13.6536V5.9974C10.2424 4.59375 9.19192 3.70052 7.87879 3.70052H5.77778V16.0781ZM5.77778 19.7786V33.1771H8.0101C9.32323 33.1771 10.3737 32.2839 10.3737 30.7526V22.0755C10.3737 20.6719 9.32323 19.651 8.0101 19.651H5.77778V19.7786Z" fill="#A2A2A2"/>
<path d="M18.6465 19.3958V12.25C20.4848 10.974 22.7172 10.3359 25.6061 10.3359C29.5455 10.3359 32.5657 12.6328 32.5657 16.4609V33.1771H33.6162V36.8776H27.8384V34.7083C26.5253 36.3672 24.8182 37.1328 22.7172 37.1328C20.3535 37.1328 18.5152 35.474 18.5152 32.9219V27.5625C18.5152 23.862 20.8788 21.9479 24.5556 21.4375L27.8384 21.0547V16.2057C27.8384 14.8021 26.9192 13.7812 25.6061 13.7812C24.8182 13.7812 24.0303 14.0365 23.6364 14.2917L23.3737 14.4193V19.1406H18.6465V19.3958ZM27.8384 24.8828L25.6061 25.138C24.0303 25.2656 23.2424 26.1589 23.2424 27.5625V31.6458C23.2424 32.6667 23.899 33.4323 24.8182 33.4323C26.3939 33.4323 27.8384 32.2839 27.8384 30.3698V24.8828Z" fill="#A2A2A2"/>
<path d="M36.3737 19.396V10.5913H50.1616V12.7606L41.8889 33.1772H46.6162V28.0731H50.2929V36.8778H36.3737V34.7085L44.7778 14.1642H39.9192V19.2684H36.3737V19.396Z" fill="#A2A2A2"/>
<path d="M53.3131 36.8776V33.1771H54.3636V14.2917H53.3131V10.5911H59.0909V33.1771H60.1414V36.8776H53.3131ZM54.4949 5.74219V0H59.2222V5.74219H54.4949Z" fill="#A2A2A2"/>
<path d="M63.0303 3.70052V0H68.8081V33.1771H69.8586V36.8776H63.0303V33.1771H64.0808V3.70052H63.0303Z" fill="#A2A2A2"/>
<path d="M87.0606 25.1382H77.7374V31.008C77.7374 32.5392 78.6566 33.4325 79.9697 33.4325C81.2829 33.4325 82.3334 32.5392 82.3334 31.008V28.0731H87.0606V31.1356C87.0606 34.9637 84.0404 37.2606 79.9697 37.2606C76.0303 37.2606 73.0101 34.9637 73.0101 31.1356V16.3335C73.0101 12.5054 76.0303 10.2085 79.9697 10.2085C83.9091 10.2085 87.0606 12.5054 87.0606 16.3335V25.1382ZM77.7374 21.5653H82.3334V16.4611C82.3334 14.9299 81.4142 14.0366 79.9697 14.0366C78.6566 14.0366 77.7374 14.9299 77.7374 16.4611V21.5653Z" fill="#A2A2A2"/>
<path d="M99.6667 14.2918V10.5913H106.495V14.2918H105.182L100.848 37.0054H94.6767L90.3434 14.2918H89.0303V10.5913H94.5454L97.697 33.0496H97.8283L100.586 14.1642H99.6667V14.2918Z" fill="#A2A2A2"/>
<path d="M117.657 14.6743C117 14.1639 116.343 14.0363 115.556 14.0363C114.374 14.0363 113.455 14.9295 113.455 16.3332V19.1405C113.455 20.5441 115.687 21.5649 117.919 22.203C120.283 22.841 122.515 24.6274 122.515 27.5623V31.1353C122.515 34.8358 119.495 37.1326 115.556 37.1326C113.061 37.1326 110.566 36.2394 109.515 35.6014L108.727 35.091V28.0728H113.455V32.7941C114.111 33.3045 114.768 33.4321 115.687 33.4321C117 33.4321 117.919 32.5389 117.919 31.1353V27.5623C117.919 24.2446 108.859 25.5207 108.859 19.0129V16.078C108.859 12.505 111.747 10.0806 115.687 10.0806C118.182 10.0806 120.677 10.9738 121.727 11.6118L122.515 12.1222V19.2681H117.788V14.6743H117.657Z" fill="#A2A2A2"/>
<path d="M125.667 36.8776V33.1771H126.717V3.70052H125.667V0H131.444V21.5651H132.889L135.515 14.2917H134.596V10.5911H141.424V14.2917H140.111L136.303 23.3516L140.242 33.3047H141.556V37.0052H136.697L132.889 25.138H131.444V33.1771H132.495V36.8776H125.667Z" fill="#A2A2A2"/>
<path d="M152.98 14.2918V10.5913H158.758V43.0028C158.758 46.8309 155.737 49.1278 151.798 49.1278C149.303 49.1278 146.677 48.3621 145.626 47.5965L144.838 47.0861V40.8335H149.566V44.6616C150.222 45.172 150.879 45.2996 151.798 45.2996C152.98 45.2996 154.03 44.4064 154.03 42.8752V34.5809C152.717 36.2397 151.01 37.0054 149.04 37.0054C146.545 37.0054 144.707 35.3465 144.707 32.6668V14.2918H143.657V10.5913H149.434V31.646C149.434 32.7944 150.222 33.4325 151.141 33.4325C152.848 33.4325 154.03 32.284 154.03 30.37V14.2918H152.98Z" fill="#A2A2A2"/>
<path d="M162.04 36.8778V33.1772H163.222V14.2918H162.04V10.5913H167.95V33.1772H169V36.8778H162.04Z" fill="#A2A2A2"/>
</g>
<defs>
<clipPath id="clip0_94_3">
<rect width="169" height="49" fill="white"/>
</clipPath>
</defs>
</svg>
