<svg width="199" height="60" viewBox="0 0 199 60" fill="none" xmlns="http://www.w3.org/2000/svg">
<g clip-path="url(#clip0_1_7)">
<path d="M142.1 28.4791C145.46 30.4175 146.619 33.6084 146.797 37.1869C146.946 39.9602 146.946 42.8231 146.53 45.5666C145.846 50.2783 142.962 53.2008 138.265 53.6481C133.895 53.8569 125.72 53.8569 125.72 53.8569C125.72 53.8569 125.78 21.829 125.78 5.72566C126.136 5.69584 126.463 5.66602 126.82 5.66602C129.674 5.66602 132.498 5.66602 135.352 5.66602C140.614 5.66602 143.854 8.20081 145.073 13.3002C145.935 16.8787 145.787 20.4573 144.925 24.0358C144.479 25.7952 143.646 27.3161 142.1 28.4791ZM132.558 47.3559C133.836 47.3559 134.995 47.4155 136.155 47.3261C137.701 47.2068 138.979 46.4612 139.455 44.9404C140.525 41.4513 140.525 37.9324 139.246 34.4434C138.86 33.3698 138.028 32.5646 136.868 32.4752C135.441 32.3559 134.014 32.4453 132.558 32.4453C132.558 37.4553 132.558 42.3459 132.558 47.3559ZM132.587 25.676C133.241 25.676 133.777 25.676 134.282 25.676C136.898 25.6163 138.147 24.7515 138.474 22.1869C138.741 20.1889 138.741 18.1014 138.444 16.1034C137.968 12.9125 135.828 11.6601 132.587 12.3758C132.587 16.7296 132.587 21.1432 132.587 25.676Z" fill="#565656"/>
<path d="M177.447 5.69583C179.706 5.69583 181.877 5.69583 184.195 5.69583C184.195 6.20279 184.195 6.65011 184.195 7.12724C184.195 18.2803 184.195 29.4632 184.225 40.6163C184.225 42.0477 184.374 43.509 184.612 44.9105C184.73 45.5964 185.117 46.2823 185.533 46.8191C187.049 48.668 189.814 48.5487 191.152 46.7893C191.508 46.2525 191.746 45.4175 191.895 44.4632C192.222 42.1372 192.014 39.2445 192.014 39.2445C192.014 39.2445 192.044 17.8927 192.044 7.18689C192.044 6.70975 192.044 5.69583 192.044 5.69583H199C199 5.69583 199.03 27.7038 198.911 38.3201C198.881 41.2724 198.673 44.3738 198.049 47.2366C197.008 52.0676 193.916 54.2445 188.982 54.334C188.06 54.3638 187.138 54.3638 186.217 54.2445C181.817 53.5288 179.409 51.3221 178.279 47.2366C177.744 44.9105 177.507 42.4354 177.477 40.0497C177.388 28.6581 177.447 17.2366 177.447 5.69583Z" fill="#565656"/>
<path d="M156.34 5.69583C160.116 5.69583 163.772 5.69583 167.548 5.69583C169.48 21.7097 171.412 37.7237 173.345 53.7972C171.085 53.7972 168.915 53.7972 166.596 53.7972C166.15 50.0398 165.675 46.2525 165.229 42.3758C163.029 42.3758 160.889 42.3758 158.689 42.3758C158.213 46.1929 157.737 49.9801 157.262 53.7972C155.062 53.7972 152.921 53.7972 150.632 53.7972C152.505 37.7833 154.408 21.7694 156.34 5.69583ZM164.783 35.5169C163.891 28.33 162.107 14.2843 162.107 14.2843H161.81C161.81 14.2843 160.056 28.3897 159.164 35.5169C161.037 35.5169 162.791 35.5169 164.783 35.5169Z" fill="#565656"/>
<path d="M119.091 20.9344C116.921 20.9344 112.58 20.9344 112.58 20.9344C112.58 20.9344 112.788 18.996 112.937 17.9225C113.383 14.1948 111.243 12.4652 108.745 12.2565C106.902 12.1074 105.475 13.1511 105.029 14.9404C103.989 19.1153 105.594 23.0517 109.191 25.5567C111.451 27.1372 113.74 28.7177 115.702 30.5964C120.102 34.831 121.112 42.7932 118.199 48.1312C115.137 53.7376 107.497 55.6163 102.176 52.0378C99.6189 50.3082 98.519 47.7435 98.3109 44.7913C98.1622 42.6441 98.2811 40.497 98.2811 38.2306C100.63 38.2306 102.77 38.2306 105.029 38.2306C105.029 39.2147 104.97 40.2584 105.059 41.2724C105.178 42.6143 105.208 43.9861 105.624 45.2386C106.129 46.7594 107.437 47.5348 109.072 47.5646C110.589 47.5944 111.451 46.6103 112.105 45.3579C113.71 42.2863 113.205 37.6342 110.678 34.9503C109.251 33.4294 107.467 32.2068 105.743 31.0139C102.354 28.7475 99.6486 25.9443 98.4595 21.9781C97.5082 18.8767 97.2704 15.7157 98.2811 12.5845C99.5594 8.67793 102.978 6.02385 107.11 5.75546C108.002 5.69582 108.864 5.69582 109.756 5.72564C114.988 5.96421 118.526 9.21471 119.239 14.4632C119.388 15.5368 119.418 16.6103 119.388 17.6839C119.358 18.7873 119.21 19.8608 119.091 20.9344Z" fill="#565656"/>
<path d="M79.5822 11.9284C77.1444 11.9284 74.9148 11.9284 72.596 11.9284C72.596 9.84095 72.596 7.81312 72.596 5.72565C79.493 5.72565 86.4196 5.72565 93.376 5.72565C93.376 7.75348 93.376 9.75149 93.376 11.8688C91.1167 11.8688 88.7979 11.8688 86.3899 11.8688C86.3899 25.9145 86.3899 39.841 86.3899 53.827C84.0711 53.827 81.9009 53.827 79.5822 53.827C79.5822 39.9006 79.5822 25.9742 79.5822 11.9284Z" fill="#555555"/>
<path d="M0 14.9702L29.7281 0L59.4562 14.9702V45.0298L29.7281 60L0 44.9404V14.9702ZM29.7281 57.5248L57.2861 43.5686L57.2564 16.4016L29.7281 2.50497L2.19988 16.3718V43.5388L29.7281 57.5248Z" fill="#7D7D7C"/>
<path d="M51.5486 41.004L34.7224 48.7575V32.5944L48.9622 25.9443V20.1591L45.0084 18.161L29.7281 24.5726V2.50497L57.2564 16.4016L57.3158 43.5686" fill="#555555"/>
<path d="M29.7281 2.50497V24.5726L14.4776 18.161L10.5238 20.1591L10.494 25.9443L24.7041 32.5646L2.19989 43.5388V16.3718L29.7281 2.50497Z" fill="#FE8E14"/>
<path d="M2.19989 43.5388L24.7041 32.5646L24.7338 48.7873L29.6984 51.1133L51.5486 41.004L57.3158 43.5686L29.7281 57.5248L2.19989 43.5388Z" fill="#FEC500"/>
<path d="M34.7224 48.7575L29.6687 51.1133L24.7338 48.7873L24.7041 32.5646L10.5237 25.9443V20.1591L14.4776 18.161L29.7281 24.5726L44.9786 18.161L48.9325 20.1591V25.9443L34.7224 32.5944V48.7575Z" fill="#FEFEFE"/>
</g>
<defs>
<clipPath id="clip0_1_7">
<rect width="199" height="60" fill="white"/>
</clipPath>
</defs>
</svg>
