<svg width="24" height="24" viewBox="0 0 24 24" fill="none" xmlns="http://www.w3.org/2000/svg">
<g clip-path="url(#clip0_98_404)">
<path d="M12.0517 16.7183C12.0833 15.94 10.9967 15.5558 10.5275 16.1592C9.51582 17.3808 7.61666 19.6 7.50749 19.8733C7.21833 20.7067 8.57416 21.2383 9.43415 21.56C10.3683 21.91 11.0333 22.0525 11.4275 21.985C11.7125 21.9258 11.8958 21.7783 11.9858 21.5408C12.06 21.3367 12.0525 16.9008 12.0517 16.7183Z" fill="#A2A2A2"/>
<path d="M11.6017 2.53502C11.535 2.27668 11.3559 2.11002 11.0625 2.03502C10.1984 1.80835 6.92418 2.73335 6.31418 3.38835C6.11918 3.58668 6.04918 3.81752 6.10751 4.07835L10.2617 10.745C11.11 12.1017 12.1767 11.6942 12.1067 10.1775H12.1059C12.0509 9.17835 11.6525 2.86502 11.6017 2.53502Z" fill="#A2A2A2"/>
<path d="M9.84414 14.6975C10.6291 14.4558 10.5708 13.305 9.90247 13.035C8.11997 12.3008 5.6858 11.2733 5.4983 11.2733C4.7683 11.23 4.62747 12.2742 4.5533 13.02C4.48664 13.695 4.4833 14.3133 4.54164 14.8775C4.59664 15.4725 4.7258 16.08 5.31914 16.115C5.57664 16.1142 9.80497 14.71 9.84414 14.6975Z" fill="#A2A2A2"/>
<path d="M19.095 12.0434C19.4308 11.8092 19.38 11.46 19.3841 11.345C19.2941 10.4917 17.8591 8.33669 17.1408 7.98753C16.8675 7.86086 16.6291 7.86836 16.4258 8.01169C16.1566 8.19419 13.7258 11.715 13.5816 11.8609C13.1091 12.5 13.785 13.42 14.4916 13.2342L14.48 13.2584C14.7641 13.1625 18.875 12.19 19.095 12.0434Z" fill="#A2A2A2"/>
<path d="M14.7675 14.9883C14.0333 14.7258 13.3408 15.6633 13.7675 16.3058C13.8883 16.5116 16.1083 20.2266 16.3033 20.365C16.4908 20.5241 16.7258 20.5475 16.995 20.4441C17.7492 20.1425 19.3825 18.0475 19.4883 17.23C19.5308 16.94 19.4533 16.7141 19.25 16.5516C19.0858 16.405 14.7675 14.9883 14.7675 14.9883Z" fill="#A2A2A2"/>
</g>
<defs>
<clipPath id="clip0_98_404">
<rect width="20" height="20" fill="white" transform="translate(2 2)"/>
</clipPath>
</defs>
</svg>
